<svg id="Capa_1" enable-background="new 0 0 512 512" height="512" viewBox="0 0 512 512" width="512" xmlns="http://www.w3.org/2000/svg"><path d="m472 512h-432c-22.091 0-40-17.909-40-40v-432c0-22.091 17.909-40 40-40h432c22.091 0 40 17.909 40 40v432c0 22.091-17.909 40-40 40z" fill="#daf3f8"/><path d="m476.618.467v457.419c0 11.495-9.318 20.813-20.813 20.813h-454.971c3.857 19 20.654 33.301 40.792 33.301h428.748c22.989 0 41.626-18.637 41.626-41.626v-428.748c0-20.867-15.355-38.146-35.382-41.159z" fill="#a5e4ef"/><circle cx="390.244" cy="99.902" fill="#fcd0a3" r="35.382"/><path d="m390.244 64.52c-3.656 0-7.182.555-10.5 1.584 16.607 2.913 29.231 17.396 29.231 34.838 0 15.885-10.468 29.325-24.882 33.798 1.999.35 4.052.544 6.151.544 19.541 0 35.382-15.841 35.382-35.382s-15.841-35.382-35.382-35.382z" fill="#ffb983"/><circle cx="121.756" cy="99.902" fill="#fcd0a3" r="35.382"/><path d="m121.756 64.52c-3.656 0-7.182.555-10.5 1.584 16.607 2.913 29.231 17.396 29.231 34.838 0 15.885-10.468 29.325-24.882 33.798 1.999.35 4.052.544 6.151.544 19.541 0 35.382-15.841 35.382-35.382s-15.841-35.382-35.382-35.382z" fill="#ffb983"/><path d="m427.48 310.114h-74.472c-11.046 0-20-8.954-20-20v-105.691c0-11.046 8.954-20 20-20h74.472c11.046 0 20 8.954 20 20v105.691c0 11.046-8.955 20-20 20z" fill="#27a2fb"/><path d="m426.667 164.423h-20.813c11.495 0 20.813 9.318 20.813 20.813v104.065c0 11.495-9.318 20.813-20.813 20.813h20.813c11.495 0 20.813-9.318 20.813-20.813v-104.065c0-11.495-9.319-20.813-20.813-20.813z" fill="#0a81f9"/><path d="m406.667 447.48h-32.846c-11.046 0-20-8.954-20-20v-117.366h72.846v117.366c0 11.045-8.955 20-20 20z" fill="#27a2fb"/><path d="m138.179 447.48h-32.846c-11.046 0-20-8.954-20-20v-117.366h72.846v117.366c0 11.045-8.954 20-20 20z" fill="#fc8086"/><path d="m85.333 310.114h72.846v22.894h-72.846z" fill="#fb636f"/><path d="m353.821 310.114h72.846v22.894h-72.846z" fill="#0a81f9"/><path d="m170.563 310.114h-97.614c-12.313 0-21.935-10.632-20.71-22.884l10.407-104.065c1.064-10.64 10.017-18.742 20.71-18.742h76.801c10.693 0 19.646 8.102 20.71 18.742l10.407 104.065c1.224 12.252-8.398 22.884-20.711 22.884z" fill="#fc8086"/><path d="m191.273 287.23-10.407-104.065c-1.064-10.64-10.017-18.742-20.71-18.742h-22.996c10.693 0 19.646 8.102 20.71 18.742l10.407 104.065c1.225 12.252-8.396 22.884-20.71 22.884h22.996c12.313 0 21.935-10.632 20.71-22.884z" fill="#fb636f"/><path d="m256 471.857c-4.267 0-7.726-3.459-7.726-7.726v-416.261c0-4.267 3.459-7.726 7.726-7.726s7.726 3.459 7.726 7.726v416.26c0 4.267-3.459 7.727-7.726 7.727z" fill="#695e66"/></svg>